<svg width="53" height="15" fill="none" xmlns="http://www.w3.org/2000/svg"><path fill-rule="evenodd" clip-rule="evenodd" d="M14.282 0v.007c-.007 0-2.07-.007-2.62 1.965-.505 1.807-1.927 6.799-1.966 6.936h-.393S7.848 3.806 7.337 1.965C6.787-.007 4.717 0 4.717 0H0v15h4.717V6.092h.393L7.862 15h3.275l2.752-8.902h.393V15h4.717V0h-4.717zm17.23 0s-1.383.124-2.031 1.572L26.14 8.908h-.393V0H21.03v15h4.455s1.448-.131 2.096-1.572l3.276-7.336h.393V15h4.717V0h-4.455zm6.551 6.812V15h4.717v-4.782h5.11a5.103 5.103 0 004.815-3.406H38.063z" fill="#4DB45E"/><path fill-rule="evenodd" clip-rule="evenodd" d="M47.89 0H37.401a7.535 7.535 0 007.41 6.157h8.084c.072-.34.105-.688.105-1.048A5.108 5.108 0 0047.89 0z" fill="url(#paint0_linear_372_13952)"/><defs><linearGradient id="paint0_linear_372_13952" x1="37.403" y1="3.079" x2="53" y2="3.079" gradientUnits="userSpaceOnUse"><stop offset=".3" stop-color="#00B4E6"/><stop offset="1" stop-color="#088CCB"/></linearGradient></defs></svg>