<svg width="42" height="42" fill="none" xmlns="http://www.w3.org/2000/svg"><path d="M21 11.813a1.313 1.313 0 00-2.625 0v18.374a1.313 1.313 0 002.625 0V11.813zM6.562 13.124a1.313 1.313 0 000 2.625h7.875a1.313 1.313 0 000-2.625H6.564zm0 5.25a1.313 1.313 0 000 2.625h7.875a1.313 1.313 0 000-2.625H6.564zm0 5.25a1.313 1.313 0 000 2.625h7.875a1.313 1.313 0 000-2.625H6.564z" fill="#C5528B"/><path fill-rule="evenodd" clip-rule="evenodd" d="M0 10.5a5.25 5.25 0 015.25-5.25h31.5A5.25 5.25 0 0142 10.5v21a5.25 5.25 0 01-5.25 5.25H5.25A5.25 5.25 0 010 31.5v-21zm5.25-2.625A2.625 2.625 0 002.625 10.5v21a2.625 2.625 0 002.625 2.625h31.5a2.625 2.625 0 002.625-2.625v-21a2.625 2.625 0 00-2.625-2.625H5.25z" fill="#C5528B"/><path d="M34.813 18.013a2.566 2.566 0 00-1.93-.186 2.55 2.55 0 00-5.093 0 2.613 2.613 0 00-1.93.169 2.55 2.55 0 00.355 4.667c-.3.427-.463.936-.467 1.458.003.146.017.293.041.437a2.532 2.532 0 002.503 2.118c.124.008.249.008.373 0a2.578 2.578 0 001.668-1.01 2.579 2.579 0 001.669.986c.124.009.249.009.373 0a2.543 2.543 0 002.077-4.007 2.543 2.543 0 00.361-4.667v.035zm-5.448-1.131a1.4 1.4 0 011.937 0 1.417 1.417 0 01.303 1.551l-.152.345-.385.338a2.376 2.376 0 00-.735-.128 2.32 2.32 0 00-.939.198l-.326-.753a1.394 1.394 0 01.297-1.551zm-3.558 3.99a1.383 1.383 0 012.158-1.622l.286.25.204.468A2.287 2.287 0 0028 21.32a1.667 1.667 0 000 .262h-.32l-.49.047a1.383 1.383 0 01-1.383-.758zm3.85 3.546a1.389 1.389 0 01-2.719-.046 1.789 1.789 0 010-.245 1.358 1.358 0 01.683-1.167l.297-.21.531-.058a2.34 2.34 0 001.389.916l-.181.81zm.676-1.93a1.166 1.166 0 110-2.333 1.166 1.166 0 010 2.332zm3.395 1.878a1.377 1.377 0 01-1.563 1.131 1.394 1.394 0 01-1.167-1.079l-.081-.35.122-.536a2.34 2.34 0 001.284-1.027l.291.175h.053l.385.227a1.39 1.39 0 01.676 1.459zm1.132-3.5a1.393 1.393 0 01-1.242.776h-.14l-.374-.059-.437-.239a2.332 2.332 0 00-.584-1.54l.251-.216.368-.338a1.382 1.382 0 012.158 1.645v-.03z" fill="#C5528B"/></svg>