<svg width="22" height="22" fill="none" xmlns="http://www.w3.org/2000/svg"><path d="M7.734 3.953h-.171a.172.172 0 00.171-.172v.172h6.532v-.172c0 .095.077.172.171.172h-.171V5.5h1.546V3.781c0-.758-.616-1.375-1.374-1.375H7.561c-.758 0-1.375.617-1.375 1.375V5.5h1.547V3.953zM18.563 5.5H3.438a.687.687 0 00-.688.688v.687c0 .095.077.172.172.172H4.22l.53 11.236c.035.733.64 1.31 1.373 1.31h9.754c.735 0 1.338-.575 1.373-1.31l.53-11.236h1.298a.172.172 0 00.172-.172v-.688a.687.687 0 00-.688-.687zm-2.851 12.547H6.287l-.52-11H16.23l-.52 11z" fill="#fff"/></svg>