<svg width="28" height="38" fill="none" xmlns="http://www.w3.org/2000/svg"><path d="M8.522 12.667c0-1.048-.82-1.9-1.826-1.9-1.007 0-1.826.852-1.826 1.9 0 1.047.819 1.9 1.826 1.9 1.006 0 1.826-.853 1.826-1.9zm-2.435 0c0-.35.273-.634.609-.634.336 0 .608.284.608.634a.62.62 0 01-.608.633.622.622 0 01-.609-.633z" fill="#C5528B"/><path d="M28 12.667c0-1.04-.604-1.935-1.467-2.325a2.5 2.5 0 00-.537-2.556 2.266 2.266 0 00-2.458-.56C23.164 6.33 22.303 5.7 21.304 5.7c-.3 0-.585.063-.851.167a2.493 2.493 0 00-1.225-1.225 2.5 2.5 0 00-.537-2.556 2.265 2.265 0 00-2.457-.56C15.86.63 14.999 0 14 0c-.999 0-1.86.629-2.234 1.526a2.265 2.265 0 00-2.457.56 2.5 2.5 0 00-.538 2.556c-.535.242-.97.68-1.224 1.225a2.328 2.328 0 00-.851-.167c-1 0-1.86.629-2.234 1.526a2.265 2.265 0 00-2.458.56 2.5 2.5 0 00-.537 2.556C.604 10.732 0 11.627 0 12.667c0 1.039.604 1.934 1.467 2.324a2.5 2.5 0 00.537 2.557 2.27 2.27 0 002.458.559 2.47 2.47 0 001.625 1.44V20.9c0 1.352.311 2.644.9 3.81-.248.047-.49.136-.706.288a1.917 1.917 0 00-.803 1.573v3.858c0 .632.3 1.22.803 1.573a1.764 1.764 0 001.701.192l1.85-.77a4.59 4.59 0 00-.093.876v5.067c0 .35.272.633.609.633h7.304a.62.62 0 00.609-.633V32.3a4.59 4.59 0 00-.093-.876l1.85.77c.563.234 1.2.162 1.701-.192.503-.353.803-.941.803-1.573v-3.858c0-.632-.3-1.22-.802-1.573a1.775 1.775 0 00-.707-.287 8.42 8.42 0 00.9-3.811v-1.353a2.47 2.47 0 001.625-1.44 2.27 2.27 0 002.458-.56 2.5 2.5 0 00.537-2.556c.863-.39 1.467-1.285 1.467-2.324zM9.74 5.7a.608.608 0 00.562-.39.652.652 0 00-.133-.691 1.193 1.193 0 010-1.638 1.084 1.084 0 011.575 0 .589.589 0 00.663.138.633.633 0 00.376-.586c0-.698.546-1.266 1.217-1.266s1.217.568 1.217 1.266c0 .256.148.488.376.586a.59.59 0 00.663-.138 1.084 1.084 0 011.575 0 1.193 1.193 0 010 1.638.652.652 0 00-.133.69.61.61 0 00.563.391c.556 0 1.021.393 1.166.923a2.546 2.546 0 00-.357.603 2.265 2.265 0 00-2.457.56 2.5 2.5 0 00-.537 2.556c-.2.09-.38.216-.551.359A2.359 2.359 0 0014 10.133a2.36 2.36 0 00-1.525.568 2.425 2.425 0 00-.55-.359 2.5 2.5 0 00-.538-2.556 2.266 2.266 0 00-2.457-.56 2.544 2.544 0 00-.357-.603c.145-.53.61-.923 1.166-.923zm7.958 9.743a.61.61 0 00.563.39c.671 0 1.217.568 1.217 1.267s-.546 1.267-1.217 1.267a.609.609 0 00-.563.39.652.652 0 00.133.69 1.193 1.193 0 010 1.639 1.084 1.084 0 01-1.575 0 .591.591 0 00-.663-.138.634.634 0 00-.376.585c0 .699-.546 1.267-1.217 1.267s-1.217-.568-1.217-1.267a.634.634 0 00-.376-.585.597.597 0 00-.663.137 1.084 1.084 0 01-1.575 0 1.193 1.193 0 010-1.637.652.652 0 00.133-.69.609.609 0 00-.563-.391c-.671 0-1.217-.568-1.217-1.267s.546-1.267 1.217-1.267a.609.609 0 00.563-.39.652.652 0 00-.133-.69 1.193 1.193 0 010-1.639 1.084 1.084 0 011.575 0 .589.589 0 00.663.138.634.634 0 00.376-.585c0-.699.546-1.267 1.217-1.267s1.217.568 1.217 1.267c0 .255.148.487.376.585a.59.59 0 00.663-.138 1.084 1.084 0 011.575 0 1.193 1.193 0 010 1.638.652.652 0 00-.133.69zm2.089 3.626c.268.224.577.385.909.474V20.9c0 1.53-.468 2.972-1.349 4.185l-3.105 1.293c-.557-.637-1.35-1.045-2.242-1.045-.891 0-1.685.408-2.243 1.045l-3.105-1.293A7.07 7.07 0 017.304 20.9v-1.357c.332-.09.64-.25.91-.474.169.143.355.264.557.355a2.5 2.5 0 00.538 2.557c.663.69 1.629.877 2.457.56.374.897 1.235 1.526 2.234 1.526.999 0 1.86-.63 2.234-1.527.827.318 1.794.13 2.457-.559a2.5 2.5 0 00.538-2.557c.202-.09.389-.212.558-.355zM12.174 28.5c0-1.047.82-1.9 1.826-1.9 1.007 0 1.826.852 1.826 1.9 0 1.047-.82 1.9-1.826 1.9-1.007 0-1.826-.852-1.826-1.9zM5.478 17.1a.633.633 0 00-.375-.585.59.59 0 00-.664.137 1.084 1.084 0 01-1.574 0 1.193 1.193 0 010-1.638.652.652 0 00.132-.69.608.608 0 00-.562-.39c-.672 0-1.218-.569-1.218-1.267 0-.699.546-1.267 1.218-1.267a.608.608 0 00.562-.39.652.652 0 00-.132-.691 1.193 1.193 0 010-1.638 1.084 1.084 0 011.574 0 .59.59 0 00.664.138.633.633 0 00.375-.586c0-.698.546-1.266 1.218-1.266.671 0 1.217.568 1.217 1.266 0 .256.148.488.376.586a.59.59 0 00.663-.138 1.084 1.084 0 011.574 0 1.193 1.193 0 010 1.638.652.652 0 00-.132.69.61.61 0 00.563.391c.244 0 .48.08.679.22a2.261 2.261 0 00-2.327.599 2.5 2.5 0 00-.538 2.557c-.862.39-1.467 1.285-1.467 2.324 0 .338.07.657.185.951-.22.2-.5.316-.793.316-.672 0-1.218-.568-1.218-1.267zm2.053 13.917a.58.58 0 01-.568-.064.63.63 0 01-.267-.524v-3.858a.63.63 0 01.267-.524.582.582 0 01.568-.064l3.601 1.499c-.105.321-.175.66-.175 1.018s.07.697.175 1.018l-3.601 1.5zm9.513 1.283v4.433h-6.088V32.3c0-.524.13-1.039.366-1.497l.435-.18c.558.636 1.352 1.044 2.243 1.044.891 0 1.685-.408 2.243-1.045l.435.181c.236.458.366.973.366 1.497zm4.26-5.73v3.86a.63.63 0 01-.267.523.582.582 0 01-.568.064l-3.601-1.499c.106-.321.176-.66.176-1.018s-.07-.697-.176-1.018l3.601-1.499a.58.58 0 01.568.064c.17.119.267.31.267.524zm4.261-12.637a.608.608 0 00-.562.391.652.652 0 00.132.69 1.193 1.193 0 010 1.638 1.084 1.084 0 01-1.574 0 .59.59 0 00-.664-.137.634.634 0 00-.375.585c0 .699-.546 1.267-1.218 1.267-.294 0-.573-.117-.793-.316.115-.294.185-.613.185-.951 0-1.04-.605-1.935-1.467-2.324a2.5 2.5 0 00-.538-2.557 2.262 2.262 0 00-2.327-.599c.2-.14.435-.22.68-.22a.608.608 0 00.562-.39.652.652 0 00-.132-.691 1.193 1.193 0 010-1.638 1.084 1.084 0 011.574 0 .59.59 0 00.663.138.634.634 0 00.376-.586c0-.698.546-1.266 1.217-1.266.672 0 1.218.568 1.218 1.266 0 .256.148.488.375.586a.59.59 0 00.664-.138 1.084 1.084 0 011.574 0 1.193 1.193 0 010 1.638.652.652 0 00-.132.69.607.607 0 00.562.391c.672 0 1.218.568 1.218 1.267 0 .698-.546 1.266-1.218 1.266z" fill="#C5528B"/><path d="M21.304 10.767c-1.006 0-1.826.852-1.826 1.9 0 1.047.82 1.9 1.826 1.9 1.007 0 1.826-.853 1.826-1.9 0-1.048-.819-1.9-1.826-1.9zm0 2.533a.622.622 0 01-.608-.633c0-.35.272-.634.608-.634.336 0 .61.284.61.634 0 .35-.274.633-.61.633zM14 15.2c-1.007 0-1.826.852-1.826 1.9 0 1.047.82 1.9 1.826 1.9 1.007 0 1.826-.852 1.826-1.9s-.82-1.9-1.826-1.9zm0 2.533a.622.622 0 01-.609-.633c0-.35.273-.633.609-.633.336 0 .609.283.609.633 0 .35-.273.633-.609.633zm0-8.866c1.007 0 1.826-.853 1.826-1.9 0-1.048-.82-1.9-1.826-1.9-1.007 0-1.826.852-1.826 1.9 0 1.047.82 1.9 1.826 1.9zm0-2.534c.336 0 .609.284.609.634 0 .35-.273.633-.609.633a.622.622 0 01-.609-.633c0-.35.273-.634.609-.634z" fill="#C5528B"/></svg>