<svg width="49" height="30" fill="none" xmlns="http://www.w3.org/2000/svg"><path d="M31.124 3.208H17.876v23.584h13.248V3.208z" fill="#FF5F00"/><path d="M18.717 15c0-4.792 2.271-9.042 5.762-11.792A15.139 15.139 0 0015.142 0C6.772 0 0 6.708 0 15s6.772 15 15.142 15c3.533 0 6.771-1.208 9.337-3.208A14.927 14.927 0 0118.717 15z" fill="#EB001B"/><path d="M49 15c0 8.292-6.772 15-15.142 15a15.139 15.139 0 01-9.337-3.208c3.533-2.75 5.762-7 5.762-11.792s-2.271-9.042-5.762-11.792C27.087 1.208 30.325 0 33.858 0 42.228 0 49 6.75 49 15z" fill="#F79E1B"/></svg>