<svg width="22" height="21" fill="none" xmlns="http://www.w3.org/2000/svg"><path d="M18 9.624h1.75c0-4.489-3.389-7.874-7.884-7.874V3.5C15.421 3.5 18 6.075 18 9.624z" fill="#fff"/><path d="M11.875 7c1.84 0 2.625.785 2.625 2.625h1.75c0-2.822-1.553-4.375-4.375-4.375V7zm2.994 4.763a.876.876 0 00-1.217.037l-2.094 2.154c-.504-.097-1.517-.413-2.56-1.453-1.043-1.044-1.359-2.06-1.452-2.56l2.151-2.095a.875.875 0 00.038-1.217L6.502 3.074a.875.875 0 00-1.217-.076l-1.9 1.628a.875.875 0 00-.253.568c-.013.219-.263 5.4 3.755 9.42 3.505 3.505 7.896 3.761 9.105 3.761.177 0 .285-.005.314-.007a.868.868 0 00.567-.255l1.627-1.9a.875.875 0 00-.075-1.216l-3.556-3.234z" fill="#fff"/></svg>