<svg width="47" height="15" fill="none" xmlns="http://www.w3.org/2000/svg"><g clip-path="url(#clip0_372_13943)"><path d="M20.366 14.784H16.56L18.94.264h3.808l-2.382 14.52zM34.169.618A9.499 9.499 0 0030.754 0c-3.76 0-6.408 1.977-6.424 4.804-.031 2.085 1.896 3.244 3.337 3.94 1.473.71 1.973 1.174 1.973 1.807-.015.973-1.19 1.421-2.286 1.421-1.52 0-2.335-.231-3.572-.772l-.502-.232-.532 3.26c.892.4 2.538.756 4.246.772 3.995 0 6.596-1.947 6.626-4.959.016-1.653-1.002-2.92-3.195-3.954-1.332-.665-2.148-1.113-2.148-1.793.016-.617.69-1.25 2.193-1.25a6.547 6.547 0 012.836.556l.345.154.517-3.136zm5.06 9.022l1.52-4.063c-.016.03.313-.85.5-1.39l.267 1.25s.721 3.477.878 4.203h-3.165zm4.7-9.377h-2.945c-.909 0-1.599.263-1.99 1.205l-5.656 13.315h3.995l.8-2.178h4.888c.109.51.454 2.178.454 2.178H47L43.93.263zm-30.549 0l-3.73 9.902-.407-2.008C8.554 5.839 6.393 3.322 3.98 2.07l3.416 12.698h4.026L17.405.263H13.38z" fill="#00579F"/><path d="M6.188.263H.063L0 .557c4.778 1.205 7.943 4.11 9.243 7.6L7.912 1.484C7.692.556 7.019.294 6.188.264z" fill="#FAA61A"/></g><defs><clipPath id="clip0_372_13943"><path fill="#fff" d="M0 0h47v15H0z"/></clipPath></defs></svg>